<?xml version="1.0" encoding="utf-8"?>
<!-- Generator: Adobe Illustrator 24.0.1, SVG Export Plug-In . SVG Version: 6.00 Build 0)  -->
<svg version="1.1" id="Layer_1" xmlns="http://www.w3.org/2000/svg" xmlns:xlink="http://www.w3.org/1999/xlink" x="0px" y="0px"
	 viewBox="0 0 1200 1200" style="enable-background:new 0 0 1200 1200;" xml:space="preserve">
<style type="text/css">
	.st0{fill:#FFFFFF;}
	.st1{fill:#1D1D1B;}
	.st2{fill:url(#SVGID_1_);}
	.st3{fill:url(#SVGID_2_);}
	.st4{fill:url(#SVGID_3_);}
	.st5{fill:url(#SVGID_4_);}
	.st6{fill:url(#SVGID_5_);}
	.st7{fill:url(#SVGID_6_);}
	.st8{fill:url(#SVGID_7_);}
	.st9{fill:url(#SVGID_8_);}
	.st10{fill:url(#SVGID_9_);}
</style>
<rect x="-5.56" y="-18.53" class="st0" width="1211.12" height="1211.12"/>
<path class="st1" d="M603.87,972.36c7.87-0.21,15.78-0.7,23.61-1.49l96.2,57.06l13.48,7.99l5.37-14.72l39.55-108.46
	c12.99-9.26,25.34-19.54,36.83-30.63l66.61,4.93l12.95,0.96c11.35,19.62,32.46,31.8,55.14,31.8c7.42,0,14.78-1.32,21.73-3.86
	c-0.11,0.88-0.12,1.77-0.03,2.67c0.48,4.75,3.73,8.76,8.29,10.2l157.54,49.97c1.21,0.38,2.45,0.57,3.66,0.57
	c4.16,0,8.09-2.17,10.29-5.94c2.84-4.86,1.95-10.95-2.17-14.8c-16.06-14.96-97.37-90.68-121.49-112.19
	c-3.53-3.16-8.6-3.93-12.92-1.98c-0.78,0.35-1.51,0.79-2.18,1.29c-1.22-7.4-3.75-14.64-7.61-21.34
	c-11.32-19.68-32.47-31.9-55.2-31.9c-0.22,0-0.45,0.01-0.67,0.01l-6.82-10.43l-31.31-47.89l-3.84-5.87l-7.01-0.02l-136.35-0.29
	h-0.01h-0.01c-3.9,0-7.53,1.74-10.01,4.55l-0.15-0.09c-4.73-2.73-10.11-4.17-15.57-4.17c-9.91,0-19.41,4.78-25.42,12.78
	c-27.88,37.15-70.42,59.22-116.71,60.54l-4.15,0.12l-4.28-0.11c-51.02-1.3-97.61-28.02-124.62-71.47l-2.22-3.57l-2.03-3.71
	c-1.83-3.34-3.54-6.76-5.12-10.25H900.4h11.07l1.76-10.93c1.42-8.81,2.48-17.8,3.15-26.78l72.5-85.07l10.17-11.94l-13.61-7.78
	l-98.36-56.23c-3.45-7.37-7.21-14.62-11.2-21.69l-8.67-14.46c-2.24-3.52-4.53-7.02-6.9-10.45L858.26,351l-0.27-15.42l-15.15,2.88
	l-109.46,20.82c-16.09-7.65-32.83-13.96-49.87-18.8l-26.92-56.75l-5.46-11.51c15.67-27.06,9.68-60.82-12.6-81.06
	c1.67-0.85,3.17-2.04,4.39-3.55c2.57-3.19,3.54-7.32,2.66-11.32L608.79,8c-1.36-6.24-6.78-10.59-13.16-10.59
	c-6.31,0-11.7,4.29-13.12,10.43c-5.25,22.66-31.76,137.27-38.14,168.08c-0.82,3.99,0.18,8.08,2.74,11.23
	c1.18,1.44,2.62,2.59,4.22,3.43c-5.18,4.57-9.67,9.98-13.22,16.1c-6.66,11.46-9.65,24.48-8.66,37.66
	c0.76,10.08,3.8,19.72,8.87,28.32l-5.4,11.41l-26.79,56.62c-15.66,4.5-31.03,10.22-45.84,17.05L348.1,338l-15.19-2.67l-0.06,15.43
	l-0.43,113.22c-3.9,5.49-7.62,11.11-11.12,16.77l-8.52,14.56c-3.07,5.58-6.01,11.31-8.78,17.13l-98.67,56.41l-13.61,7.78
	l10.17,11.94l71.97,84.45c1.23,17.79,3.95,35.53,8.12,52.86l-37.36,53.33l-8.03,11.46c-30.59,1-55.92,23.12-61.84,52.22
	c-2.23-1.53-4.9-2.38-7.63-2.38c-3.37,0-6.6,1.26-9.09,3.54L31.48,959.91c-4.13,3.78-5.49,9.6-3.46,14.81
	c2.03,5.22,6.95,8.59,12.54,8.59c1.35,0,2.68-0.2,3.98-0.6c21.99-6.77,133.29-41.05,163.88-51.24c5.07-1.69,8.66-6.22,9.15-11.54
	c0.07-0.75,0.07-1.49,0.01-2.22c6.64,2.28,13.76,3.54,21.17,3.54c23.67,0,45.11-12.64,56.65-32.79l13.06-0.96l63.76-4.69
	c12.72,12.21,26.49,23.41,41.02,33.37l38.48,105.52l5.37,14.72l13.48-7.99l96.41-57.18c6.67,0.58,13.39,0.96,20.04,1.12
	L603.87,972.36z M466.96,569.88c27.08-43.06,73.52-69.54,124.24-70.85l4.28-0.11l4.14,0.12c49.91,1.43,95.88,27.43,122.97,69.54
	l2.28,3.54l2.08,3.67c2.08,3.66,4.01,7.42,5.77,11.25H457.67c1.55-3.36,3.23-6.67,5.02-9.9l2.14-3.86L466.96,569.88z"/>
<g>
	<g>
		<radialGradient id="SVGID_1_" cx="592.1094" cy="598.6146" r="459.4773" gradientUnits="userSpaceOnUse">
			<stop  offset="0" style="stop-color:#FF6D00"/>
			<stop  offset="0.0259" style="stop-color:#FF7800"/>
			<stop  offset="0.1452" style="stop-color:#FFA800"/>
			<stop  offset="0.2586" style="stop-color:#FFCD00"/>
			<stop  offset="0.3634" style="stop-color:#FFE800"/>
			<stop  offset="0.4564" style="stop-color:#FFF800"/>
			<stop  offset="0.5279" style="stop-color:#FFFE00"/>
			<stop  offset="0.5786" style="stop-color:#FFF600"/>
			<stop  offset="0.6577" style="stop-color:#FFE000"/>
			<stop  offset="0.7552" style="stop-color:#FFBC00"/>
			<stop  offset="0.8663" style="stop-color:#FF8A00"/>
			<stop  offset="0.9246" style="stop-color:#FF6D00"/>
		</radialGradient>
		<path class="st2" d="M167.55,855.92c0-1.02,0.02-2.04,0.07-3.05L38.72,970.9c2.08-0.64,135.17-41.56,166.6-52.1
			C182.85,906.83,167.55,883.16,167.55,855.92z"/>
		<radialGradient id="SVGID_2_" cx="592.1094" cy="598.6146" r="459.4773" gradientUnits="userSpaceOnUse">
			<stop  offset="0" style="stop-color:#FF6D00"/>
			<stop  offset="0.0259" style="stop-color:#FF7800"/>
			<stop  offset="0.1452" style="stop-color:#FFA800"/>
			<stop  offset="0.2586" style="stop-color:#FFCD00"/>
			<stop  offset="0.3634" style="stop-color:#FFE800"/>
			<stop  offset="0.4564" style="stop-color:#FFF800"/>
			<stop  offset="0.5279" style="stop-color:#FFFE00"/>
			<stop  offset="0.5786" style="stop-color:#FFF600"/>
			<stop  offset="0.6577" style="stop-color:#FFE000"/>
			<stop  offset="0.7552" style="stop-color:#FFBC00"/>
			<stop  offset="0.8663" style="stop-color:#FF8A00"/>
			<stop  offset="0.9246" style="stop-color:#FF6D00"/>
		</radialGradient>
		<path class="st3" d="M595.64,8.74c0,0-32.3,139.27-38.76,170.87c9.76-6.15,20.89-9.8,32.32-10.65l6.32-0.22
			c11.79,0.13,23.69,3.23,34.6,9.57c1.02,0.59,2.01,1.2,2.99,1.84L595.64,8.74z"/>
		<radialGradient id="SVGID_3_" cx="592.1094" cy="598.6146" r="459.4773" gradientUnits="userSpaceOnUse">
			<stop  offset="0" style="stop-color:#FF6D00"/>
			<stop  offset="0.0259" style="stop-color:#FF7800"/>
			<stop  offset="0.1452" style="stop-color:#FFA800"/>
			<stop  offset="0.2586" style="stop-color:#FFCD00"/>
			<stop  offset="0.3634" style="stop-color:#FFE800"/>
			<stop  offset="0.4564" style="stop-color:#FFF800"/>
			<stop  offset="0.5279" style="stop-color:#FFFE00"/>
			<stop  offset="0.5786" style="stop-color:#FFF600"/>
			<stop  offset="0.6577" style="stop-color:#FFE000"/>
			<stop  offset="0.7552" style="stop-color:#FFBC00"/>
			<stop  offset="0.8663" style="stop-color:#FF8A00"/>
			<stop  offset="0.9246" style="stop-color:#FF6D00"/>
		</radialGradient>
		<path class="st4" d="M568.31,284.72c23.09,13.42,52.19,7.19,67.92-13.56c1.3-1.7,2.5-3.5,3.6-5.4
			c14.51-24.99,6.02-57.01-18.96-71.52c-24.99-14.52-57.01-6.02-71.52,18.96c-11.02,18.97-8.78,42,3.87,58.33
			C557.23,276.72,562.29,281.22,568.31,284.72z"/>
		<radialGradient id="SVGID_4_" cx="592.1094" cy="598.6146" r="459.4773" gradientUnits="userSpaceOnUse">
			<stop  offset="0" style="stop-color:#FF6D00"/>
			<stop  offset="0.0259" style="stop-color:#FF7800"/>
			<stop  offset="0.1452" style="stop-color:#FFA800"/>
			<stop  offset="0.2586" style="stop-color:#FFCD00"/>
			<stop  offset="0.3634" style="stop-color:#FFE800"/>
			<stop  offset="0.4564" style="stop-color:#FFF800"/>
			<stop  offset="0.5279" style="stop-color:#FFFE00"/>
			<stop  offset="0.5786" style="stop-color:#FFF600"/>
			<stop  offset="0.6577" style="stop-color:#FFE000"/>
			<stop  offset="0.7552" style="stop-color:#FFBC00"/>
			<stop  offset="0.8663" style="stop-color:#FF8A00"/>
			<stop  offset="0.9246" style="stop-color:#FF6D00"/>
		</radialGradient>
		<path class="st5" d="M1022.97,854.3c0.27,10.14-1.71,20.21-5.72,29.47c-5.72,13.23-15.6,24.8-29.06,32.55
			c-0.72,0.41-1.44,0.81-2.17,1.2l160.58,50.93C1146.6,968.45,1048.06,876.59,1022.97,854.3z"/>
		<radialGradient id="SVGID_5_" cx="592.1094" cy="598.6146" r="459.4773" gradientUnits="userSpaceOnUse">
			<stop  offset="0" style="stop-color:#FF6D00"/>
			<stop  offset="0.0259" style="stop-color:#FF7800"/>
			<stop  offset="0.1452" style="stop-color:#FFA800"/>
			<stop  offset="0.2586" style="stop-color:#FFCD00"/>
			<stop  offset="0.3634" style="stop-color:#FFE800"/>
			<stop  offset="0.4564" style="stop-color:#FFF800"/>
			<stop  offset="0.5279" style="stop-color:#FFFE00"/>
			<stop  offset="0.5786" style="stop-color:#FFF600"/>
			<stop  offset="0.6577" style="stop-color:#FFE000"/>
			<stop  offset="0.7552" style="stop-color:#FFBC00"/>
			<stop  offset="0.8663" style="stop-color:#FF8A00"/>
			<stop  offset="0.9246" style="stop-color:#FF6D00"/>
		</radialGradient>
		<path class="st6" d="M996.95,882.27c9.16-15.25,10-34.87,0.5-51.39c-10.68-18.56-31.33-27.79-51.3-24.84
			c-6.12,0.89-12.17,2.94-17.85,6.21c-22.34,12.86-31.17,40.16-21.5,63.34c0.82,1.97,1.78,3.92,2.87,5.82
			c13.95,24.24,44.91,32.58,69.15,18.63C986.55,895.59,992.67,889.41,996.95,882.27z"/>
		<radialGradient id="SVGID_6_" cx="592.1094" cy="598.6146" r="459.4773" gradientUnits="userSpaceOnUse">
			<stop  offset="0" style="stop-color:#FF6D00"/>
			<stop  offset="0.0259" style="stop-color:#FF7800"/>
			<stop  offset="0.1452" style="stop-color:#FFA800"/>
			<stop  offset="0.2586" style="stop-color:#FFCD00"/>
			<stop  offset="0.3634" style="stop-color:#FFE800"/>
			<stop  offset="0.4564" style="stop-color:#FFF800"/>
			<stop  offset="0.5279" style="stop-color:#FFFE00"/>
			<stop  offset="0.5786" style="stop-color:#FFF600"/>
			<stop  offset="0.6577" style="stop-color:#FFE000"/>
			<stop  offset="0.7552" style="stop-color:#FFBC00"/>
			<stop  offset="0.8663" style="stop-color:#FF8A00"/>
			<stop  offset="0.9246" style="stop-color:#FF6D00"/>
		</radialGradient>
		<path class="st7" d="M903.84,741.31H764.88l131.27,75.79c5.7-8.42,13.37-15.71,22.78-21.13c5.22-3,10.67-5.25,16.22-6.77
			L903.84,741.31z M455.54,737.03L303.84,827v0.01c3.94,8.83,6.12,18.62,6.12,28.91c0,6.44-0.86,12.69-2.46,18.62l69.61-5.12
			c14.31,14.26,30.02,27.12,46.89,38.35l39.92,109.48l100.04-59.34c8.87,0.89,17.84,1.41,26.91,1.53V814.63
			C533.71,813.17,483.82,782.52,455.54,737.03z M891.53,824.98L751.61,744.2c-3.27-1.89-6.98-2.88-10.76-2.88l0,0
			c-5.36,0-10.38,2.55-13.58,6.86c-29.05,39.17-75.12,64.97-127.28,66.45v144.81c10.26-0.15,20.4-0.81,30.39-1.95l99.92,59.27
			l40.94-112.28v-0.01c15.31-10.62,29.61-22.59,42.74-35.75l72.49,5.37C882.02,857.46,884.01,839.96,891.53,824.98z M559.06,300.66
			c-5.38-3.12-10.19-6.84-14.4-11.04l-29.34,62c-18.49,4.93-36.29,11.53-53.24,19.63L345.85,350.8l-0.45,117.38
			c-5.27,7.22-10.24,14.67-14.88,22.35l125.44,72.42c28.37-45.11,78.04-75.46,134.91-76.92v-175.9
			C580.01,309.58,569.11,306.5,559.06,300.66z M847.38,471.52l-2.12-120.3l-113.68,21.62h-0.01c-18.15-8.94-37.3-16.16-57.25-21.41
			h-0.01l-29.48-62.14c-12.1,12.25-28.13,19.44-44.83,20.74v176.01c56.07,1.61,105.1,31.3,133.53,75.5l124.57-73.89
			C854.69,482.15,851.12,476.78,847.38,471.52z"/>
		<radialGradient id="SVGID_7_" cx="592.1094" cy="598.6146" r="459.4773" gradientUnits="userSpaceOnUse">
			<stop  offset="0" style="stop-color:#FF6D00"/>
			<stop  offset="0.0259" style="stop-color:#FF7800"/>
			<stop  offset="0.1452" style="stop-color:#FFA800"/>
			<stop  offset="0.2586" style="stop-color:#FFCD00"/>
			<stop  offset="0.3634" style="stop-color:#FFE800"/>
			<stop  offset="0.4564" style="stop-color:#FFF800"/>
			<stop  offset="0.5279" style="stop-color:#FFFE00"/>
			<stop  offset="0.5786" style="stop-color:#FFF600"/>
			<stop  offset="0.6577" style="stop-color:#FFE000"/>
			<stop  offset="0.7552" style="stop-color:#FFBC00"/>
			<stop  offset="0.8663" style="stop-color:#FF8A00"/>
			<stop  offset="0.9246" style="stop-color:#FF6D00"/>
		</radialGradient>
		<path class="st8" d="M978.99,581.42l-75.28,88.34c-0.62,10.1-1.73,20.07-3.31,29.88H438.36c3.24,10.31,7.46,20.18,12.57,29.5
			L299.59,818.9c-9.74-15.97-25.6-27.81-44.33-32.25l40.76-58.19c-5.08-19.51-8.31-39.77-9.46-60.58v-0.01l-74.78-87.75
			l101.07-57.78l0,0c3.79-8.36,8.56-15.98,13.06-23.93l125.41,72.41c-5.12,9.23-9.37,19-12.65,29.21h313.05
			c-3.45-10.75-7.98-21.02-13.46-30.67l124.54-73.87c5.36,9.23,10.25,18.77,14.64,28.58l0.48-0.43L978.99,581.42z"/>
		<radialGradient id="SVGID_8_" cx="592.1094" cy="598.6146" r="459.4773" gradientUnits="userSpaceOnUse">
			<stop  offset="0" style="stop-color:#FF6D00"/>
			<stop  offset="0.0259" style="stop-color:#FF7800"/>
			<stop  offset="0.1452" style="stop-color:#FFA800"/>
			<stop  offset="0.2586" style="stop-color:#FFCD00"/>
			<stop  offset="0.3634" style="stop-color:#FFE800"/>
			<stop  offset="0.4564" style="stop-color:#FFF800"/>
			<stop  offset="0.5279" style="stop-color:#FFFE00"/>
			<stop  offset="0.5786" style="stop-color:#FFF600"/>
			<stop  offset="0.6577" style="stop-color:#FFE000"/>
			<stop  offset="0.7552" style="stop-color:#FFBC00"/>
			<stop  offset="0.8663" style="stop-color:#FF8A00"/>
			<stop  offset="0.9246" style="stop-color:#FF6D00"/>
		</radialGradient>
		<path class="st9" d="M243.25,803.79c-1.48-0.13-2.98-0.19-4.5-0.19c-28.9,0-52.32,23.43-52.32,52.32
			c0,28.9,23.42,52.33,52.32,52.33c21.77,0,40.43-13.29,48.31-32.2c2.58-6.2,4.01-13,4.01-20.13
			C291.07,828.54,270.04,806.07,243.25,803.79z"/>
	</g>
	<radialGradient id="SVGID_9_" cx="592.1094" cy="699.6442" r="35.777" gradientUnits="userSpaceOnUse">
		<stop  offset="0" style="stop-color:#FF6D00"/>
		<stop  offset="0.0259" style="stop-color:#FF7800"/>
		<stop  offset="0.1452" style="stop-color:#FFA800"/>
		<stop  offset="0.2586" style="stop-color:#FFCD00"/>
		<stop  offset="0.3634" style="stop-color:#FFE800"/>
		<stop  offset="0.4564" style="stop-color:#FFF800"/>
		<stop  offset="0.5279" style="stop-color:#FFFE00"/>
		<stop  offset="0.5786" style="stop-color:#FFF600"/>
		<stop  offset="0.6577" style="stop-color:#FFE000"/>
		<stop  offset="0.7552" style="stop-color:#FFBC00"/>
		<stop  offset="0.8663" style="stop-color:#FF8A00"/>
		<stop  offset="0.9246" style="stop-color:#FF6D00"/>
	</radialGradient>
	<line class="st10" x1="600" y1="699.64" x2="590.87" y2="699.64"/>
</g>
</svg>
